<svg xmlns="http://www.w3.org/2000/svg" version="1.1" xmlns:xlink="http://www.w3.org/1999/xlink" xmlns:svgjs="http://svgjs.dev/svgjs" viewBox="0 0 16.940355488621808 7.437961000452565"><g transform="matrix(1,0,0,1,0.9195172010451476,0.9195172010451476)"><g><path d=" M 0.7328041178971169 0.5522202459867558 C 0.7328041178971169 0.5810089791898567 0.7563585359723813 0.601946239701203 0.7772957964837276 0.601946239701203 C 0.8087016872507469 0.601946239701203 1.0128399772363723 0.4632368888135343 1.0547144982590646 0.43183099804651515 C 1.0756517587704109 0.41612805266300557 1.0835032314621658 0.403042264843414 1.0835032314621658 0.3637849013846399 L 1.0835032314621658 0.09160051473713948 C 1.0835032314621658 0.028788733203100714 1.057331655822983 0.0026171575639180045 0.9945198742889444 0.0026171575639180045 L 0.10992061768456754 0.0026171575639180045 C 0.07328041178971169 0.0026171575639180045 0.052343151278365495 0.02355441807526426 0.052343151278365495 0.04710883615052874 C 0.052343151278365495 0.10206914499281261 0.1648809265268513 0.16226376896293293 0.1648809265268513 0.26695007151966377 L 0.1648809265268513 1.7142382043664697 C 0.1648809265268513 1.8189245069232007 0.052343151278365495 1.879119130893321 0.052343151278365495 1.9340794397356047 C 0.052343151278365495 1.9576338578108692 0.07328041178971169 1.9785711183222154 0.10992061768456754 1.9785711183222154 L 0.5705403489341839 1.9785711183222154 C 0.6071805548290398 1.9785711183222154 0.6281178153403859 1.9576338578108692 0.6281178153403859 1.9340794397356047 C 0.6281178153403859 1.879119130893321 0.5155800400919001 1.8189245069232007 0.5155800400919001 1.7142382043664697 L 0.5155800400919001 1.316430254650892 L 0.8165531599425017 1.1253777524848578 C 0.8558105234012758 1.1018233344095933 0.866279153656949 1.080886073898247 0.866279153656949 1.0363943953116366 L 0.866279153656949 0.7956158994311553 C 0.866279153656949 0.7668271662280544 0.8479590507095209 0.7406555905888714 0.8165531599425017 0.7406555905888714 C 0.7956158994311555 0.7406555905888714 0.772061481355891 0.7511242208445446 0.7485070632806266 0.7668271662280544 L 0.5155800400919001 0.9133879898074777 L 0.5155800400919001 0.29050448959492825 L 0.7328041178971169 0.29050448959492825 M 1.9629231230242765 0.29050448959492825 C 1.9890946986634592 0.29050448959492825 1.9995633289191326 0.3009731198506014 1.9995633289191326 0.32452753792586586 L 1.9995633289191326 0.7694443237919726 C 1.9995633289191326 0.7877644267394004 1.994329013791296 0.8087016872507466 1.9367515473850938 0.8479590507095207 L 1.6776529485571845 1.0259257650559634 L 1.6776529485571845 0.29050448959492825 M 2.347645284920263 1.7430269375695708 C 2.329325181972835 1.7090038892386332 2.2194045642882676 1.431585187463296 2.112101104167618 1.1227605949209396 C 2.2324903521078587 1.0468630255673097 2.350262442484181 0.9788169289054345 2.350262442484181 0.8662791536569487 L 2.350262442484181 0.2512471261361542 C 2.350262442484181 0.07851472691754813 2.2403418247996134 -2.220446049250313e-16 2.0649922680170896 -2.220446049250313e-16 L 1.271993526149852 0.0026171575639180045 C 1.2353533202549962 0.0026171575639180045 1.21441605974365 0.02355441807526426 1.21441605974365 0.04710883615052874 C 1.21441605974365 0.10206914499281261 1.326953834992136 0.16226376896293293 1.326953834992136 0.26695007151966377 L 1.326953834992136 1.7142382043664697 C 1.326953834992136 1.8189245069232007 1.21441605974365 1.879119130893321 1.21441605974365 1.9340794397356047 C 1.21441605974365 1.9576338578108692 1.2353533202549962 1.9785711183222154 1.271993526149852 1.9785711183222154 L 1.7326132573994686 1.9785711183222154 C 1.7692534632943242 1.9785711183222154 1.7901907238056705 1.9576338578108692 1.7901907238056705 1.9340794397356047 C 1.7901907238056705 1.879119130893321 1.6776529485571845 1.8189245069232007 1.6776529485571845 1.7142382043664697 L 1.6776529485571845 1.421116557207623 C 1.6776529485571845 1.4054136118241134 1.680270106121103 1.3975621391323585 1.6881215788128578 1.3923278240045218 L 1.784956408677834 1.3321332000344017 C 1.784956408677834 1.3321332000344017 1.9681574381521132 1.8006044039757727 1.9681574381521132 1.8293931371788739 C 1.9681574381521132 1.8869706035850757 1.9079628141819929 1.8948220762768306 1.9079628141819929 1.9340794397356047 C 1.9079628141819929 1.9576338578108692 1.9315172322572574 1.9785711183222154 1.9681574381521132 1.9785711183222154 L 2.4209256967099746 1.9785711183222154 C 2.449714429913076 1.9785711183222154 2.4758860055522582 1.9576338578108692 2.4758860055522582 1.9340794397356047 C 2.4758860055522582 1.8765019733294028 2.426160011837811 1.8817362884572393 2.347645284920263 1.7430269375695708 M 3.5542175394259585 1.9785711183222154 C 3.6170293209599973 1.9785711183222154 3.64320089659918 1.9523995426830327 3.64320089659918 1.8895877611489942 L 3.64320089659918 1.3373675151622382 C 3.64320089659918 1.3085787819591372 3.6196464785239155 1.287641521447791 3.5987092180125693 1.287641521447791 C 3.56730332724555 1.287641521447791 3.3631650372599244 1.4263508723354597 3.3212905162372324 1.4577567631024788 C 3.300353255725886 1.4734597084859884 3.2925017830341314 1.4865454963055797 3.2925017830341314 1.525802859764354 L 3.2925017830341314 1.6906837862912052 L 3.077894862792833 1.6906837862912052 C 3.059574759845405 1.6906837862912052 3.043871814461895 1.6775979984716138 3.043871814461895 1.6592778955241858 L 3.043871814461895 1.366156248365339 L 3.344844934312497 1.175103746199305 C 3.384102297771271 1.1515493281240405 3.394570928026944 1.1306120676126945 3.394570928026944 1.0861203890260838 L 3.394570928026944 0.8453418931456025 C 3.394570928026944 0.8165531599425015 3.376250825079516 0.7903815843033188 3.344844934312497 0.7903815843033188 C 3.3239076738011506 0.7903815843033188 3.300353255725886 0.8008502145589917 3.2767988376506216 0.8165531599425015 L 3.043871814461895 0.9631139835219249 L 3.043871814461895 0.32191038036194763 C 3.043871814461895 0.30620743497843783 3.059574759845405 0.29050448959492825 3.077894862792833 0.29050448959492825 L 3.2925017830341314 0.29050448959492825 L 3.2925017830341314 0.5783918216259385 C 3.2925017830341314 0.6071805548290394 3.316056201109396 0.6281178153403857 3.336993461620742 0.6281178153403857 C 3.3683993523877613 0.6281178153403857 3.572537642373387 0.48940846445271724 3.614412163396079 0.45800257368569786 C 3.6353494239074253 0.4422996283021883 3.64320089659918 0.4292138404825969 3.64320089659918 0.38995647702382263 L 3.64320089659918 0.09160051473713948 C 3.64320089659918 0.028788733203100714 3.6170293209599973 0.0026171575639180045 3.5542175394259585 0.0026171575639180045 L 2.638212392054563 0.0026171575639180045 C 2.6015721861597068 0.0026171575639180045 2.5806349256483605 0.02355441807526426 2.5806349256483605 0.04710883615052874 C 2.5806349256483605 0.10206914499281261 2.6931727008968465 0.16226376896293293 2.6931727008968465 0.26695007151966377 L 2.6931727008968465 1.7142382043664697 C 2.6931727008968465 1.8189245069232007 2.5806349256483605 1.879119130893321 2.5806349256483605 1.9340794397356047 C 2.5806349256483605 1.9576338578108692 2.6015721861597068 1.9785711183222154 2.638212392054563 1.9785711183222154 M 4.799993485213824 1.9785711183222154 C 4.862805266747863 1.9785711183222154 4.888976842387046 1.9523995426830327 4.888976842387046 1.8895877611489942 L 4.888976842387046 1.3373675151622382 C 4.888976842387046 1.3085787819591372 4.865422424311781 1.287641521447791 4.844485163800435 1.287641521447791 C 4.813079273033416 1.287641521447791 4.60894098304779 1.4263508723354597 4.567066462025098 1.4577567631024788 C 4.546129201513752 1.4734597084859884 4.538277728821997 1.4865454963055797 4.538277728821997 1.525802859764354 L 4.538277728821997 1.6906837862912052 L 4.323670808580698 1.6906837862912052 C 4.305350705633271 1.6906837862912052 4.289647760249761 1.6775979984716138 4.289647760249761 1.6592778955241858 L 4.289647760249761 1.366156248365339 L 4.590620880100363 1.175103746199305 C 4.629878243559137 1.1515493281240405 4.64034687381481 1.1306120676126945 4.64034687381481 1.0861203890260838 L 4.64034687381481 0.8453418931456025 C 4.64034687381481 0.8165531599425015 4.622026770867382 0.7903815843033188 4.590620880100363 0.7903815843033188 C 4.569683619589016 0.7903815843033188 4.546129201513752 0.8008502145589917 4.522574783438488 0.8165531599425015 L 4.289647760249761 0.9631139835219249 L 4.289647760249761 0.32191038036194763 C 4.289647760249761 0.30620743497843783 4.305350705633271 0.29050448959492825 4.323670808580698 0.29050448959492825 L 4.538277728821997 0.29050448959492825 L 4.538277728821997 0.5783918216259385 C 4.538277728821997 0.6071805548290394 4.561832146897261 0.6281178153403857 4.582769407408608 0.6281178153403857 C 4.614175298175627 0.6281178153403857 4.818313588161253 0.48940846445271724 4.8601881091839445 0.45800257368569786 C 4.881125369695291 0.4422996283021883 4.888976842387046 0.4292138404825969 4.888976842387046 0.38995647702382263 L 4.888976842387046 0.09160051473713948 C 4.888976842387046 0.028788733203100714 4.862805266747863 0.0026171575639180045 4.799993485213824 0.0026171575639180045 L 3.8839883378424287 0.0026171575639180045 C 3.8473481319475726 0.0026171575639180045 3.8264108714362264 0.02355441807526426 3.8264108714362264 0.04710883615052874 C 3.8264108714362264 0.10206914499281261 3.9389486466847123 0.16226376896293293 3.9389486466847123 0.26695007151966377 L 3.9389486466847123 1.7142382043664697 C 3.9389486466847123 1.8189245069232007 3.8264108714362264 1.879119130893321 3.8264108714362264 1.9340794397356047 C 3.8264108714362264 1.9576338578108692 3.8473481319475726 1.9785711183222154 3.8839883378424287 1.9785711183222154 M 5.535423706037627 1.6906837862912052 L 5.535423706037627 0.26695007151966377 C 5.535423706037627 0.16226376896293293 5.647961481286113 0.10206914499281261 5.647961481286113 0.04710883615052874 C 5.647961481286113 0.02355441807526426 5.627024220774767 0.0026171575639180045 5.590384014879911 0.0026171575639180045 L 5.129764283630294 0.0026171575639180045 C 5.093124077735439 0.0026171575639180045 5.072186817224092 0.02355441807526426 5.072186817224092 0.04710883615052874 C 5.072186817224092 0.10206914499281261 5.184724592472578 0.16226376896293293 5.184724592472578 0.26695007151966377 L 5.184724592472578 1.7142382043664697 C 5.184724592472578 1.8189245069232007 5.072186817224092 1.879119130893321 5.072186817224092 1.9340794397356047 C 5.072186817224092 1.9576338578108692 5.093124077735439 1.9785711183222154 5.129764283630294 1.9785711183222154 L 5.956786073828469 1.9785711183222154 C 6.019597855362508 1.9785711183222154 6.04576943100169 1.9523995426830327 6.04576943100169 1.8895877611489942 L 6.04576943100169 1.3373675151622382 C 6.04576943100169 1.3085787819591372 6.022215012926426 1.287641521447791 6.0012777524150795 1.287641521447791 C 5.969871861648061 1.287641521447791 5.765733571662436 1.4263508723354597 5.723859050639743 1.4577567631024788 C 5.702921790128396 1.4734597084859884 5.695070317436642 1.4865454963055797 5.695070317436642 1.525802859764354 L 5.695070317436642 1.6906837862912052 M 6.710468668424462 1.2745557336281994 L 6.883201067643068 0.5391344581671644 L 7.008824630711145 1.114909122229185 M 7.4982330951638625 1.6566607379602676 C 7.469444361960761 1.5519744354035367 7.147533981598814 0.26695007151966377 7.147533981598814 0.1858181870381972 C 7.147533981598814 0.13609219332375 7.215580078260689 0.08113188448146635 7.215580078260689 0.04972599371444697 C 7.215580078260689 0.020937260511346034 7.194642817749343 0.0026171575639180045 7.158002611854487 0.0026171575639180045 L 6.616250996123404 0.0026171575639180045 C 6.579610790228548 0.0026171575639180045 6.558673529717202 0.020937260511346034 6.558673529717202 0.04972599371444697 C 6.558673529717202 0.08113188448146635 6.626719626379077 0.13609219332375 6.626719626379077 0.1858181870381972 C 6.626719626379077 0.26695007151966377 6.270786197686192 1.6645122106520225 6.249848937174845 1.745644095133489 C 6.226294519099581 1.8372446098706285 6.124225374106769 1.8895877611489942 6.124225374106769 1.9314622821716865 C 6.124225374106769 1.9602510153747874 6.1451626346181145 1.9785711183222154 6.181802840512971 1.9785711183222154 L 6.647656886890423 1.9785711183222154 C 6.689531407913115 1.9785711183222154 6.707851510860544 1.9576338578108692 6.707851510860544 1.9314622821716865 C 6.707851510860544 1.8895877611489942 6.613633838559486 1.8555647128180566 6.613633838559486 1.7534955678252437 L 6.613633838559486 1.6828323135994503 L 7.087339357628693 1.4263508723354597 C 7.087339357628693 1.4263508723354597 7.173705557237996 1.7796671434644264 7.173705557237996 1.7979872464118545 C 7.173705557237996 1.860799027945893 7.105659460576121 1.8895877611489942 7.105659460576121 1.9314622821716865 C 7.105659460576121 1.9576338578108692 7.123979563523549 1.9785711183222154 7.1658540845462415 1.9785711183222154 L 7.595067925028839 1.9785711183222154 C 7.631708130923695 1.9785711183222154 7.6526453914350405 1.9602510153747874 7.6526453914350405 1.9314622821716865 C 7.6526453914350405 1.8895877611489942 7.540107616186555 1.8163073493592825 7.4982330951638625 1.6566607379602676 M 8.246750381716224 1.9785711183222154 C 8.288624902738915 1.9785711183222154 8.320030793505934 1.9523995426830327 8.320030793505934 1.9131421792242587 C 8.320030793505934 1.8529475552541383 8.207493018257448 1.7901357737200996 8.207493018257448 1.735175464877816 L 8.207493018257448 0.8741306263487036 L 8.73615884616894 1.9052907065325038 C 8.759713264244205 1.9523995426830327 8.778033367191632 1.9785711183222154 8.848696621417426 1.9785711183222154 L 9.013577547944276 1.9785711183222154 C 9.071155014350479 1.9785711183222154 9.107795220245336 1.9419309124273596 9.107795220245336 1.8869706035850757 L 9.107795220245336 0.26695007151966377 C 9.107795220245336 0.16226376896293293 9.220332995493822 0.10206914499281261 9.220332995493822 0.04710883615052874 C 9.220332995493822 0.02355441807526426 9.199395734982474 0.0026171575639180045 9.162755529087619 0.0026171575639180045 L 8.715221585657595 0.0026171575639180045 C 8.678581379762738 0.0026171575639180045 8.657644119251392 0.02355441807526426 8.657644119251392 0.04710883615052874 C 8.657644119251392 0.10206914499281261 8.770181894499878 0.16226376896293293 8.770181894499878 0.26695007151966377 L 8.770181894499878 1.193423849146733 L 8.244133224152305 0.08374904204538458 C 8.228430278768794 0.04710883615052874 8.210110175821367 0.0026171575639180045 8.1289782913399 0.0026171575639180045 L 7.814919383669707 0.0026171575639180045 C 7.778279177774852 0.0026171575639180045 7.757341917263505 0.02355441807526426 7.757341917263505 0.04710883615052874 C 7.757341917263505 0.10206914499281261 7.869879692511991 0.16226376896293293 7.869879692511991 0.26695007151966377 L 7.869879692511991 1.7142382043664697 C 7.869879692511991 1.8189245069232007 7.757341917263505 1.879119130893321 7.757341917263505 1.9340794397356047 C 7.757341917263505 1.9576338578108692 7.778279177774852 1.9785711183222154 7.814919383669707 1.9785711183222154 M 10.400668501003029 1.251001315552935 C 10.400668501003029 1.222212582349834 10.377114082927765 1.2012753218384877 10.356176822416419 1.2012753218384877 C 10.3247709316494 1.2012753218384877 10.120632641663775 1.3399846727261564 10.078758120641082 1.3713905634931756 C 10.057820860129736 1.3870935088766854 10.049969387437981 1.4001792966962767 10.049969387437981 1.4394366601550508 L 10.049969387437981 1.6566607379602676 C 10.049969387437981 1.6749808409076956 10.034266442054472 1.6906837862912052 10.015946339107042 1.6906837862912052 L 9.788253631046153 1.6906837862912052 C 9.769933528098726 1.6906837862912052 9.754230582715216 1.6749808409076956 9.754230582715216 1.6566607379602676 L 9.754230582715216 0.32452753792586586 C 9.754230582715216 0.30620743497843783 9.769933528098726 0.29050448959492825 9.788253631046153 0.29050448959492825 L 9.98977476346786 0.29050448959492825 C 10.008094866415288 0.29050448959492825 10.023797811798797 0.30620743497843783 10.023797811798797 0.32452753792586586 L 10.023797811798797 0.6569065485434868 C 10.023797811798797 0.6856952817465878 10.047352229874063 0.706632542257934 10.068289490385409 0.706632542257934 C 10.099695381152427 0.706632542257934 10.303833671138053 0.5679231913702654 10.345708192160746 0.5365173006032462 C 10.366645452672092 0.5208143552197364 10.374496925363847 0.507728567400145 10.374496925363847 0.468471203941371 L 10.374496925363847 0.21722407780521658 C 10.374496925363847 0.10992061768456729 10.269810622807116 0.0026171575639180045 10.115398326535937 0.0026171575639180045 L 9.652161437722404 0.0026171575639180045 C 9.510834929270816 0.0026171575639180045 9.403531469150167 0.07328041178971145 9.403531469150167 0.20413828998562522 L 9.403531469150167 1.7770499859005082 C 9.403531469150167 1.907907864096422 9.510834929270816 1.9785711183222154 9.652161437722404 1.9785711183222154 L 10.14156990217512 1.9785711183222154 C 10.301216513574134 1.9785711183222154 10.400668501003029 1.8660333430737297 10.400668501003029 1.7665813556448353 M 11.478856909072453 1.9785711183222154 C 11.54166869060649 1.9785711183222154 11.567840266245675 1.9523995426830327 11.567840266245675 1.8895877611489942 L 11.567840266245675 1.3373675151622382 C 11.567840266245675 1.3085787819591372 11.544285848170409 1.287641521447791 11.523348587659063 1.287641521447791 C 11.491942696892044 1.287641521447791 11.28780440690642 1.4263508723354597 11.245929885883726 1.4577567631024788 C 11.22499262537238 1.4734597084859884 11.217141152680625 1.4865454963055797 11.217141152680625 1.525802859764354 L 11.217141152680625 1.6906837862912052 L 11.002534232439327 1.6906837862912052 C 10.9842141294919 1.6906837862912052 10.968511184108388 1.6775979984716138 10.968511184108388 1.6592778955241858 L 10.968511184108388 1.366156248365339 L 11.26948430395899 1.175103746199305 C 11.308741667417765 1.1515493281240405 11.319210297673438 1.1306120676126945 11.319210297673438 1.0861203890260838 L 11.319210297673438 0.8453418931456025 C 11.319210297673438 0.8165531599425015 11.30089019472601 0.7903815843033188 11.26948430395899 0.7903815843033188 C 11.248547043447644 0.7903815843033188 11.22499262537238 0.8008502145589917 11.201438207297116 0.8165531599425015 L 10.968511184108388 0.9631139835219249 L 10.968511184108388 0.32191038036194763 C 10.968511184108388 0.30620743497843783 10.9842141294919 0.29050448959492825 11.002534232439327 0.29050448959492825 L 11.217141152680625 0.29050448959492825 L 11.217141152680625 0.5783918216259385 C 11.217141152680625 0.6071805548290394 11.24069557075589 0.6281178153403857 11.261632831267235 0.6281178153403857 C 11.293038722034256 0.6281178153403857 11.49717701201988 0.48940846445271724 11.539051533042572 0.45800257368569786 C 11.55998879355392 0.4422996283021883 11.567840266245675 0.4292138404825969 11.567840266245675 0.38995647702382263 L 11.567840266245675 0.09160051473713948 C 11.567840266245675 0.028788733203100714 11.54166869060649 0.0026171575639180045 11.478856909072453 0.0026171575639180045 L 10.562851761701056 0.0026171575639180045 C 10.526211555806201 0.0026171575639180045 10.505274295294855 0.02355441807526426 10.505274295294855 0.04710883615052874 C 10.505274295294855 0.10206914499281261 10.61781207054334 0.16226376896293293 10.61781207054334 0.26695007151966377 L 10.61781207054334 1.7142382043664697 C 10.61781207054334 1.8189245069232007 10.505274295294855 1.879119130893321 10.505274295294855 1.9340794397356047 C 10.505274295294855 1.9576338578108692 10.526211555806201 1.9785711183222154 10.562851761701056 1.9785711183222154 M 3.496573621753483 3.773941207170152 C 3.496573621753483 3.745152473967051 3.473019203678218 3.7242152134557047 3.4520819431668723 3.7242152134557047 C 3.4206760523998527 3.7242152134557047 3.2165377624142275 3.8629245643433734 3.174663241391535 3.8943304551103926 C 3.153725980880189 3.9100334004939024 3.145874508188434 3.9231191883134935 3.145874508188434 3.9623765517722678 L 3.145874508188434 4.179600629577484 C 3.145874508188434 4.197920732524913 3.1301715628049243 4.213623677908422 3.1118514598574967 4.213623677908422 L 2.8841587517966065 4.213623677908422 C 2.865838648849179 4.213623677908422 2.850135703465669 4.197920732524913 2.850135703465669 4.179600629577484 L 2.850135703465669 2.847467429543083 C 2.850135703465669 2.8291473265956544 2.865838648849179 2.813444381212145 2.8841587517966065 2.813444381212145 L 3.0856798842183135 2.813444381212145 C 3.103999987165742 2.813444381212145 3.1197029325492514 2.8291473265956544 3.1197029325492514 2.847467429543083 L 3.1197029325492514 3.179846440160704 C 3.1197029325492514 3.2086351733638043 3.143257350624516 3.229572433875151 3.164194611135862 3.229572433875151 C 3.1956005019028813 3.229572433875151 3.399738791888507 3.0908630829874824 3.4416133129111994 3.0594571922204628 C 3.4625505734225452 3.0437542468369534 3.4704020461143 3.030668459017362 3.4704020461143 2.991411095558588 L 3.4704020461143 2.7401639694224333 C 3.4704020461143 2.632860509301784 3.365715743557569 2.5255570491811348 3.211303447286391 2.5255570491811348 L 2.7480665584728565 2.5255570491811348 C 2.6067400500212696 2.5255570491811348 2.49943658990062 2.596220303406928 2.49943658990062 2.7270781816028418 L 2.49943658990062 4.299989877517725 C 2.49943658990062 4.430847755713639 2.6067400500212696 4.501511009939432 2.7480665584728565 4.501511009939432 L 3.2374750229255738 4.501511009939432 C 3.3971216343245887 4.501511009939432 3.496573621753483 4.388973234690947 3.496573621753483 4.289521247262052 M 3.9545468035329456 4.501511009939432 L 4.470126843624845 4.501511009939432 C 4.6297734550238605 4.501511009939432 4.729225442452755 4.38373891956311 4.729225442452755 4.27643545944246 L 4.729225442452755 2.7506325996781067 C 4.729225442452755 2.635477666865702 4.627156297459942 2.5255570491811348 4.470126843624845 2.5255570491811348 L 3.9545468035329456 2.5255570491811348 C 3.815837452645277 2.5255570491811348 3.7059168349607092 2.5988374609708464 3.7059168349607092 2.737546811858515 L 3.7059168349607092 4.289521247262052 C 3.7059168349607092 4.425613440585802 3.8132202950813587 4.501511009939432 3.9545468035329456 4.501511009939432 M 4.056615948525758 4.195303574960994 L 4.056615948525758 2.831764484159573 C 4.056615948525758 2.8212958539038997 4.064467421217513 2.813444381212145 4.074936051473186 2.813444381212145 L 4.360206225940278 2.813444381212145 C 4.370674856195951 2.813444381212145 4.378526328887706 2.8212958539038997 4.378526328887706 2.831764484159573 L 4.378526328887706 4.195303574960994 C 4.378526328887706 4.203155047652749 4.370674856195951 4.213623677908422 4.360206225940278 4.213623677908422 L 4.074936051473186 4.213623677908422 C 4.064467421217513 4.213623677908422 4.056615948525758 4.203155047652749 4.056615948525758 4.195303574960994 M 5.401856660832186 4.501511009939432 C 5.443731181854878 4.501511009939432 5.475137072621898 4.475339434300249 5.475137072621898 4.436082070841476 C 5.475137072621898 4.375887446871355 5.362599297373412 4.313075665337316 5.362599297373412 4.258115356495033 L 5.362599297373412 3.39707051796592 L 5.891265125284903 4.42823059814972 C 5.914819543360168 4.475339434300249 5.933139646307596 4.501511009939432 6.0038029005333895 4.501511009939432 L 6.16868382706024 4.501511009939432 C 6.226261293466442 4.501511009939432 6.262901499361298 4.464870804044576 6.262901499361298 4.4099104952022925 L 6.262901499361298 2.7898899631368805 C 6.262901499361298 2.6852036605801497 6.375439274609784 2.625009036610029 6.375439274609784 2.5700487277677455 C 6.375439274609784 2.546494309692481 6.354502014098438 2.5255570491811348 6.317861808203582 2.5255570491811348 L 5.870327864773557 2.5255570491811348 C 5.833687658878701 2.5255570491811348 5.812750398367355 2.546494309692481 5.812750398367355 2.5700487277677455 C 5.812750398367355 2.625009036610029 5.925288173615841 2.6852036605801497 5.925288173615841 2.7898899631368805 L 5.925288173615841 3.71636374076395 L 5.399239503268268 2.6066889336626016 C 5.383536557884758 2.5700487277677455 5.365216454937331 2.5255570491811348 5.284084570455864 2.5255570491811348 L 4.9700256627856705 2.5255570491811348 C 4.933385456890815 2.5255570491811348 4.912448196379469 2.546494309692481 4.912448196379469 2.5700487277677455 C 4.912448196379469 2.625009036610029 5.024985971627954 2.6852036605801497 5.024985971627954 2.7898899631368805 L 5.024985971627954 4.237178095983687 C 5.024985971627954 4.341864398540418 4.912448196379469 4.402059022510538 4.912448196379469 4.4570193313528215 C 4.912448196379469 4.480573749428086 4.933385456890815 4.501511009939432 4.9700256627856705 4.501511009939432 M 6.995703061440482 4.501511009939432 C 7.037577582463174 4.501511009939432 7.068983473230194 4.475339434300249 7.068983473230194 4.436082070841476 C 7.068983473230194 4.375887446871355 6.9564456979817075 4.313075665337316 6.9564456979817075 4.258115356495033 L 6.9564456979817075 3.39707051796592 L 7.485111525893199 4.42823059814972 C 7.508665943968464 4.475339434300249 7.526986046915892 4.501511009939432 7.5976493011416855 4.501511009939432 L 7.762530227668536 4.501511009939432 C 7.820107694074738 4.501511009939432 7.856747899969594 4.464870804044576 7.856747899969594 4.4099104952022925 L 7.856747899969594 2.7898899631368805 C 7.856747899969594 2.6852036605801497 7.96928567521808 2.625009036610029 7.96928567521808 2.5700487277677455 C 7.96928567521808 2.546494309692481 7.948348414706734 2.5255570491811348 7.911708208811878 2.5255570491811348 L 7.464174265381853 2.5255570491811348 C 7.427534059486997 2.5255570491811348 7.406596798975651 2.546494309692481 7.406596798975651 2.5700487277677455 C 7.406596798975651 2.625009036610029 7.519134574224137 2.6852036605801497 7.519134574224137 2.7898899631368805 L 7.519134574224137 3.71636374076395 L 6.993085903876564 2.6066889336626016 C 6.977382958493054 2.5700487277677455 6.959062855545627 2.5255570491811348 6.87793097106416 2.5255570491811348 L 6.5638720633939664 2.5255570491811348 C 6.527231857499111 2.5255570491811348 6.506294596987765 2.546494309692481 6.506294596987765 2.5700487277677455 C 6.506294596987765 2.625009036610029 6.61883237223625 2.6852036605801497 6.61883237223625 2.7898899631368805 L 6.61883237223625 4.237178095983687 C 6.61883237223625 4.341864398540418 6.506294596987765 4.402059022510538 6.506294596987765 4.4570193313528215 C 6.506294596987765 4.480573749428086 6.527231857499111 4.501511009939432 6.5638720633939664 4.501511009939432 M 9.073723611373659 4.501511009939432 C 9.136535392907696 4.501511009939432 9.162706968546878 4.475339434300249 9.162706968546878 4.412527652766211 L 9.162706968546878 3.860307406779455 C 9.162706968546878 3.831518673576354 9.139152550471614 3.810581413065008 9.118215289960268 3.810581413065008 C 9.08680939919325 3.810581413065008 8.882671109207624 3.949290763952676 8.840796588184931 3.9806966547196954 C 8.819859327673585 3.996399600103205 8.81200785498183 4.009485387922797 8.81200785498183 4.048742751381571 L 8.81200785498183 4.213623677908422 L 8.597400934740532 4.213623677908422 C 8.579080831793103 4.213623677908422 8.563377886409594 4.200537890088831 8.563377886409594 4.182217787141402 L 8.563377886409594 3.889096139982556 L 8.864351006260195 3.698043637816522 C 8.90360836971897 3.6744892197412575 8.914076999974643 3.6535519592299113 8.914076999974643 3.6090602806433005 L 8.914076999974643 3.3682817847628193 C 8.914076999974643 3.3394930515597183 8.895756897027216 3.3133214759205356 8.864351006260195 3.3133214759205356 C 8.84341374574885 3.3133214759205356 8.819859327673585 3.3237901061762085 8.796304909598321 3.3394930515597183 L 8.563377886409594 3.4860538751391417 L 8.563377886409594 2.8448502719791646 C 8.563377886409594 2.8291473265956544 8.579080831793103 2.813444381212145 8.597400934740532 2.813444381212145 L 8.81200785498183 2.813444381212145 L 8.81200785498183 3.1013317132431553 C 8.81200785498183 3.130120446446256 8.835562273057095 3.1510577069576025 8.85649953356844 3.1510577069576025 C 8.887905424335461 3.1510577069576025 9.092043714321086 3.012348356069934 9.133918235343778 2.9809424653029146 C 9.154855495855124 2.965239519919405 9.162706968546878 2.9521537320998137 9.162706968546878 2.9128963686410394 L 9.162706968546878 2.6145404063543563 C 9.162706968546878 2.5517286248203175 9.136535392907696 2.5255570491811348 9.073723611373659 2.5255570491811348 L 8.157718464002262 2.5255570491811348 C 8.121078258107406 2.5255570491811348 8.10014099759606 2.546494309692481 8.10014099759606 2.5700487277677455 C 8.10014099759606 2.625009036610029 8.212678772844546 2.6852036605801497 8.212678772844546 2.7898899631368805 L 8.212678772844546 4.237178095983687 C 8.212678772844546 4.341864398540418 8.10014099759606 4.402059022510538 8.10014099759606 4.4570193313528215 C 8.10014099759606 4.480573749428086 8.121078258107406 4.501511009939432 8.157718464002262 4.501511009939432 M 10.395397126515153 3.773941207170152 C 10.395397126515153 3.745152473967051 10.371842708439889 3.7242152134557047 10.350905447928543 3.7242152134557047 C 10.319499557161524 3.7242152134557047 10.1153612671759 3.8629245643433734 10.073486746153206 3.8943304551103926 C 10.05254948564186 3.9100334004939024 10.044698012950105 3.9231191883134935 10.044698012950105 3.9623765517722678 L 10.044698012950105 4.179600629577484 C 10.044698012950105 4.197920732524913 10.028995067566596 4.213623677908422 10.010674964619167 4.213623677908422 L 9.782982256558277 4.213623677908422 C 9.76466215361085 4.213623677908422 9.74895920822734 4.197920732524913 9.74895920822734 4.179600629577484 L 9.74895920822734 2.847467429543083 C 9.74895920822734 2.8291473265956544 9.76466215361085 2.813444381212145 9.782982256558277 2.813444381212145 L 9.984503388979984 2.813444381212145 C 10.002823491927412 2.813444381212145 10.018526437310921 2.8291473265956544 10.018526437310921 2.847467429543083 L 10.018526437310921 3.179846440160704 C 10.018526437310921 3.2086351733638043 10.042080855386187 3.229572433875151 10.063018115897533 3.229572433875151 C 10.094424006664552 3.229572433875151 10.298562296650177 3.0908630829874824 10.34043681767287 3.0594571922204628 C 10.361374078184216 3.0437542468369534 10.36922555087597 3.030668459017362 10.36922555087597 2.991411095558588 L 10.36922555087597 2.7401639694224333 C 10.36922555087597 2.632860509301784 10.26453924831924 2.5255570491811348 10.110126952048061 2.5255570491811348 L 9.646890063234528 2.5255570491811348 C 9.50556355478294 2.5255570491811348 9.398260094662291 2.596220303406928 9.398260094662291 2.7270781816028418 L 9.398260094662291 4.299989877517725 C 9.398260094662291 4.430847755713639 9.50556355478294 4.501511009939432 9.646890063234528 4.501511009939432 L 10.136298527687245 4.501511009939432 C 10.295945139086259 4.501511009939432 10.395397126515153 4.388973234690947 10.395397126515153 4.289521247262052 M 11.261646888265867 2.813444381212145 C 11.4239106572288 2.813444381212145 11.4239106572288 2.8291473265956544 11.476253808507165 2.8867247930018567 C 11.520745487093777 2.9390679442802226 11.541682747605122 2.9600052047915684 11.57570579593606 2.9600052047915684 C 11.617580316958753 2.9600052047915684 11.646369050161853 2.9312164715884674 11.646369050161853 2.889341950565775 L 11.646369050161853 2.5700487277677455 C 11.646369050161853 2.528174206745053 11.617580316958753 2.5020026311058703 11.57570579593606 2.5020026311058703 C 11.56000285055255 2.5020026311058703 11.533831274913368 2.504619788669789 11.489339596326756 2.5098541037976254 C 11.436996445048392 2.51770557648938 11.368950348386516 2.5255570491811348 11.327075827363824 2.5255570491811348 L 10.845518835602862 2.5255570491811348 C 10.659700648564664 2.5255570491811348 10.625677600233725 2.5020026311058703 10.583803079211034 2.5020026311058703 C 10.54192855818834 2.5020026311058703 10.526225612804831 2.5203227340532983 10.526225612804831 2.562197255075991 L 10.526225612804831 2.9050448959492847 C 10.526225612804831 2.936450786716304 10.544545715752259 2.9600052047915684 10.573334448955361 2.9600052047915684 C 10.609974654850216 2.9600052047915684 10.63352907292548 2.9338336291523857 10.691106539331683 2.8841076354379385 C 10.748684005737886 2.8343816417234913 10.764386951121395 2.813444381212145 10.910947774700817 2.813444381212145 L 10.910947774700817 4.237178095983687 C 10.910947774700817 4.341864398540418 10.798409999452332 4.402059022510538 10.798409999452332 4.4570193313528215 C 10.798409999452332 4.480573749428086 10.819347259963678 4.501511009939432 10.855987465858535 4.501511009939432 L 11.31660719710815 4.501511009939432 C 11.353247403003007 4.501511009939432 11.374184663514352 4.480573749428086 11.374184663514352 4.4570193313528215 C 11.374184663514352 4.402059022510538 11.261646888265867 4.341864398540418 11.261646888265867 4.237178095983687" fill="#fffdfa" fill-rule="nonzero"></path></g><g><path d=" M 0.09440074854017005 5.5989265983622705 Q 0.08627574854017006 5.5989265983622705 0.08002574854017006 5.59517659836227 Q 0.07377574854017005 5.59142659836227 0.07377574854017005 5.58142659836227 Q 0.07377574854017005 5.580176598362271 0.07471324854017006 5.57517659836227 Q 0.07565074854017005 5.57017659836227 0.08002574854017006 5.54767659836227 L 0.08377574854017006 5.54767659836227 Q 0.09440074854017005 5.55080159836227 0.10065074854017006 5.5520515983622705 Q 0.10690074854017007 5.55330159836227 0.11565074854017006 5.55330159836227 Q 0.12940074854017006 5.55330159836227 0.13908824854017005 5.547051598362271 Q 0.14877574854017006 5.54080159836227 0.15408824854017006 5.5208015983622705 Q 0.15940074854017006 5.50080159836227 0.15940074854017006 5.45892659836227 L 0.15940074854017006 5.11330159836227 L 0.10940074854017007 5.08830159836227 L 0.10940074854017007 5.078301598362271 L 0.26565074854017007 5.078301598362271 L 0.26565074854017007 5.08830159836227 L 0.21565074854017005 5.11330159836227 L 0.21565074854017005 5.34080159836227 Q 0.21565074854017005 5.41080159836227 0.20440074854017007 5.46673909836227 Q 0.19315074854017006 5.5226765983622705 0.16627574854017008 5.55267659836227 Q 0.14815074854017007 5.57267659836227 0.13690074854017006 5.58267659836227 Q 0.12565074854017005 5.59267659836227 0.11627574854017006 5.595801598362271 Q 0.10690074854017007 5.5989265983622705 0.09440074854017005 5.5989265983622705 M 0.5675349038136076 5.49705159836227 Q 0.5225349038136076 5.49705159836227 0.4847224038136076 5.48111409836227 Q 0.4469099038136076 5.46517659836227 0.4187849038136076 5.4367390983622705 Q 0.3906599038136076 5.408301598362271 0.3750349038136076 5.36955159836227 Q 0.3594099038136076 5.33080159836227 0.3594099038136076 5.28455159836227 Q 0.3594099038136076 5.23830159836227 0.3750349038136076 5.19955159836227 Q 0.3906599038136076 5.16080159836227 0.4187849038136076 5.13236409836227 Q 0.4469099038136076 5.10392659836227 0.4847224038136076 5.08798909836227 Q 0.5225349038136076 5.07205159836227 0.5675349038136076 5.07205159836227 Q 0.6125349038136076 5.07205159836227 0.6506599038136076 5.08798909836227 Q 0.6887849038136076 5.10392659836227 0.7169099038136075 5.13236409836227 Q 0.7450349038136076 5.16080159836227 0.7606599038136076 5.19955159836227 Q 0.7762849038136076 5.23830159836227 0.7762849038136076 5.28455159836227 Q 0.7762849038136076 5.33080159836227 0.7606599038136076 5.36955159836227 Q 0.7450349038136076 5.408301598362271 0.7169099038136075 5.4367390983622705 Q 0.6887849038136076 5.46517659836227 0.6506599038136076 5.48111409836227 Q 0.6125349038136076 5.49705159836227 0.5675349038136076 5.49705159836227 M 0.5806599038136075 5.46580159836227 Q 0.6206599038136076 5.46580159836227 0.6509724038136075 5.44580159836227 Q 0.6812849038136076 5.42580159836227 0.6984724038136076 5.38955159836227 Q 0.7156599038136076 5.35330159836227 0.7156599038136076 5.3039265983622705 Q 0.7156599038136076 5.243301598362271 0.6944099038136076 5.19798909836227 Q 0.6731599038136076 5.15267659836227 0.6372224038136076 5.12767659836227 Q 0.6012849038136077 5.102676598362271 0.5569099038136076 5.102676598362271 Q 0.5169099038136076 5.102676598362271 0.4859724038136076 5.1223640983622705 Q 0.45503490381360756 5.14205159836227 0.4375349038136076 5.17830159836227 Q 0.4200349038136076 5.21455159836227 0.4200349038136076 5.2639265983622705 Q 0.4200349038136076 5.32455159836227 0.44159740381360757 5.37017659836227 Q 0.4631599038136076 5.41580159836227 0.4994099038136076 5.44080159836227 Q 0.5356599038136076 5.46580159836227 0.5806599038136075 5.46580159836227 M 0.870039176274545 5.49080159836227 L 0.870039176274545 5.48080159836227 L 0.920039176274545 5.45580159836227 L 0.920039176274545 5.11330159836227 L 0.870039176274545 5.08830159836227 L 0.870039176274545 5.078301598362271 L 1.026289176274545 5.078301598362271 L 1.026289176274545 5.08830159836227 L 0.976289176274545 5.11330159836227 L 0.976289176274545 5.45580159836227 L 1.026289176274545 5.48080159836227 L 1.026289176274545 5.49080159836227 L 0.870039176274545 5.49080159836227 M 1.1137983315479827 5.49080159836227 L 1.1137983315479827 5.48080159836227 L 1.1637983315479825 5.45580159836227 L 1.1637983315479825 5.1145515983622705 L 1.1144233315479826 5.08830159836227 L 1.1144233315479826 5.078301598362271 L 1.2062983315479827 5.078301598362271 L 1.4450483315479827 5.37830159836227 L 1.4450483315479827 5.11205159836227 L 1.3825483315479827 5.08830159836227 L 1.3825483315479827 5.078301598362271 L 1.5381733315479826 5.078301598362271 L 1.5381733315479826 5.08830159836227 L 1.4887983315479827 5.11267659836227 L 1.4887983315479827 5.49392659836227 L 1.4656733315479826 5.49392659836227 L 1.2075483315479827 5.16830159836227 L 1.2075483315479827 5.45642659836227 L 1.2700483315479827 5.48080159836227 L 1.2700483315479827 5.49080159836227 L 1.1137983315479827 5.49080159836227 M 1.8644303505909514 5.49080159836227 L 1.8644303505909514 5.48080159836227 L 1.9269303505909514 5.45580159836227 L 1.9269303505909514 5.11267659836227 L 1.8250553505909513 5.11267659836227 L 1.7825553505909513 5.20455159836227 L 1.7725553505909513 5.20455159836227 L 1.7725553505909513 5.078301598362271 L 2.1375553505909513 5.078301598362271 L 2.1375553505909513 5.20455159836227 L 2.1275553505909515 5.20455159836227 L 2.0850553505909515 5.11267659836227 L 1.9831803505909513 5.11267659836227 L 1.9831803505909513 5.45580159836227 L 2.0456803505909513 5.48080159836227 L 2.0456803505909513 5.49080159836227 L 1.8644303505909514 5.49080159836227 M 2.21256236963392 5.49080159836227 L 2.21256236963392 5.48080159836227 L 2.2625623696339203 5.45580159836227 L 2.2625623696339203 5.11330159836227 L 2.21256236963392 5.08830159836227 L 2.21256236963392 5.078301598362271 L 2.36881236963392 5.078301598362271 L 2.36881236963392 5.08830159836227 L 2.3188123696339202 5.11330159836227 L 2.3188123696339202 5.26080159836227 L 2.53131236963392 5.26080159836227 L 2.53131236963392 5.11330159836227 L 2.4813123696339203 5.08830159836227 L 2.4813123696339203 5.078301598362271 L 2.6375623696339203 5.078301598362271 L 2.6375623696339203 5.08830159836227 L 2.58756236963392 5.11330159836227 L 2.58756236963392 5.45580159836227 L 2.6375623696339203 5.48080159836227 L 2.6375623696339203 5.49080159836227 L 2.4813123696339203 5.49080159836227 L 2.4813123696339203 5.48080159836227 L 2.53131236963392 5.45580159836227 L 2.53131236963392 5.2951765983622705 L 2.3188123696339202 5.2951765983622705 L 2.3188123696339202 5.45580159836227 L 2.36881236963392 5.48080159836227 L 2.36881236963392 5.49080159836227 L 2.21256236963392 5.49080159836227 M 2.725060843755014 5.49080159836227 L 2.725060843755014 5.48080159836227 L 2.775060843755014 5.45580159836227 L 2.775060843755014 5.11330159836227 L 2.725060843755014 5.08830159836227 L 2.725060843755014 5.078301598362271 L 3.030685843755014 5.078301598362271 L 3.030685843755014 5.1858015983622705 L 3.020685843755014 5.1858015983622705 L 2.981935843755014 5.11267659836227 L 2.831310843755014 5.11267659836227 L 2.831310843755014 5.26080159836227 L 2.937560843755014 5.26080159836227 L 2.968810843755014 5.20892659836227 L 2.978810843755014 5.20892659836227 L 2.978810843755014 5.345801598362271 L 2.968810843755014 5.345801598362271 L 2.937560843755014 5.2951765983622705 L 2.831310843755014 5.2951765983622705 L 2.831310843755014 5.45642659836227 L 2.999435843755014 5.45642659836227 L 3.0381858437550138 5.377051598362271 L 3.048185843755014 5.377051598362271 L 3.048185843755014 5.49080159836227 L 2.725060843755014 5.49080159836227 M 3.3012968056690766 5.49080159836227 L 3.3012968056690766 5.48080159836227 L 3.351296805669077 5.45580159836227 L 3.351296805669077 5.11330159836227 L 3.3012968056690766 5.08830159836227 L 3.3012968056690766 5.078301598362271 L 3.6006718056690765 5.078301598362271 L 3.6006718056690765 5.1858015983622705 L 3.5906718056690767 5.1858015983622705 L 3.5519218056690764 5.11267659836227 L 3.4075468056690768 5.11267659836227 L 3.4075468056690768 5.26080159836227 L 3.507546805669077 5.26080159836227 L 3.538796805669077 5.20892659836227 L 3.5487968056690766 5.20892659836227 L 3.5487968056690766 5.345801598362271 L 3.538796805669077 5.345801598362271 L 3.507546805669077 5.2951765983622705 L 3.4075468056690768 5.2951765983622705 L 3.4075468056690768 5.45580159836227 L 3.4637968056690767 5.48080159836227 L 3.4637968056690767 5.49080159836227 L 3.3012968056690766 5.49080159836227 M 3.6913053505909517 5.49080159836227 L 3.6913053505909517 5.48080159836227 L 3.741305350590952 5.45580159836227 L 3.741305350590952 5.11330159836227 L 3.6913053505909517 5.08830159836227 L 3.6913053505909517 5.078301598362271 L 3.8525553505909516 5.078301598362271 Q 3.918180350590952 5.078301598362271 3.9559928505909516 5.10548909836227 Q 3.993805350590952 5.13267659836227 3.993805350590952 5.18017659836227 Q 3.993805350590952 5.21517659836227 3.9700553505909517 5.24298909836227 Q 3.9463053505909516 5.2708015983622705 3.906930350590952 5.28517659836227 L 4.025680350590951 5.4583015983622705 L 4.066930350590952 5.48080159836227 L 4.066930350590952 5.49080159836227 L 3.9769303505909517 5.49080159836227 L 3.855680350590952 5.30142659836227 L 3.797555350590952 5.30142659836227 L 3.797555350590952 5.455176598362271 L 3.844430350590952 5.48080159836227 L 3.844430350590952 5.49080159836227 L 3.6913053505909517 5.49080159836227 M 3.8381803505909518 5.11267659836227 L 3.797555350590952 5.11267659836227 L 3.797555350590952 5.26705159836227 L 3.841930350590952 5.26705159836227 Q 3.8813053505909516 5.26705159836227 3.9072428505909516 5.24486409836227 Q 3.933180350590952 5.22267659836227 3.933180350590952 5.18830159836227 Q 3.933180350590952 5.15330159836227 3.9075553505909517 5.132989098362271 Q 3.881930350590952 5.11267659836227 3.8381803505909518 5.11267659836227 M 4.11068706445814 5.49080159836227 L 4.11068706445814 5.48080159836227 L 4.1606870644581395 5.45580159836227 L 4.1606870644581395 5.11330159836227 L 4.11068706445814 5.08830159836227 L 4.11068706445814 5.078301598362271 L 4.41631206445814 5.078301598362271 L 4.41631206445814 5.1858015983622705 L 4.406312064458139 5.1858015983622705 L 4.36756206445814 5.11267659836227 L 4.216937064458139 5.11267659836227 L 4.216937064458139 5.26080159836227 L 4.323187064458139 5.26080159836227 L 4.354437064458139 5.20892659836227 L 4.364437064458139 5.20892659836227 L 4.364437064458139 5.345801598362271 L 4.354437064458139 5.345801598362271 L 4.323187064458139 5.2951765983622705 L 4.216937064458139 5.2951765983622705 L 4.216937064458139 5.45642659836227 L 4.38506206445814 5.45642659836227 L 4.423812064458139 5.377051598362271 L 4.43381206445814 5.377051598362271 L 4.43381206445814 5.49080159836227 L 4.11068706445814 5.49080159836227 M 4.524423026372202 5.49080159836227 L 4.524423026372202 5.48080159836227 L 4.574423026372202 5.45580159836227 L 4.574423026372202 5.11330159836227 L 4.524423026372202 5.08830159836227 L 4.524423026372202 5.078301598362271 L 4.830048026372202 5.078301598362271 L 4.830048026372202 5.1858015983622705 L 4.820048026372201 5.1858015983622705 L 4.781298026372202 5.11267659836227 L 4.630673026372201 5.11267659836227 L 4.630673026372201 5.26080159836227 L 4.736923026372201 5.26080159836227 L 4.768173026372201 5.20892659836227 L 4.778173026372201 5.20892659836227 L 4.778173026372201 5.345801598362271 L 4.768173026372201 5.345801598362271 L 4.736923026372201 5.2951765983622705 L 4.630673026372201 5.2951765983622705 L 4.630673026372201 5.45642659836227 L 4.798798026372202 5.45642659836227 L 4.837548026372201 5.377051598362271 L 4.847548026372202 5.377051598362271 L 4.847548026372202 5.49080159836227 L 4.524423026372202 5.49080159836227 M 4.938158988286264 5.49080159836227 L 4.938158988286264 5.48080159836227 L 4.988158988286264 5.45580159836227 L 4.988158988286264 5.11330159836227 L 4.938158988286264 5.08830159836227 L 4.938158988286264 5.078301598362271 L 5.100658988286264 5.078301598362271 L 5.100658988286264 5.08830159836227 L 5.044408988286263 5.11330159836227 L 5.044408988286263 5.45642659836227 L 5.196283988286264 5.45642659836227 L 5.238783988286263 5.35205159836227 L 5.248783988286264 5.35205159836227 L 5.248783988286264 5.49080159836227 L 4.938158988286264 5.49080159836227 M 5.306908683110482 5.49080159836227 L 5.306908683110482 5.48080159836227 L 5.346908683110482 5.4601765983622705 L 5.506908683110482 5.07517659836227 L 5.535033683110482 5.07517659836227 L 5.692533683110482 5.4583015983622705 L 5.734408683110482 5.48080159836227 L 5.734408683110482 5.49080159836227 L 5.579408683110482 5.49080159836227 L 5.579408683110482 5.48080159836227 L 5.6344086831104825 5.45955159836227 L 5.5875336831104825 5.343926598362271 L 5.435658683110482 5.343926598362271 L 5.389408683110482 5.45955159836227 L 5.441908683110482 5.48080159836227 L 5.441908683110482 5.49080159836227 L 5.306908683110482 5.49080159836227 M 5.450033683110482 5.30955159836227 L 5.573783683110482 5.30955159836227 L 5.511908683110482 5.15580159836227 L 5.450033683110482 5.30955159836227 M 5.798783683110481 5.49080159836227 L 5.798783683110481 5.48080159836227 L 5.848783683110482 5.45580159836227 L 5.848783683110482 5.1145515983622705 L 5.799408683110482 5.08830159836227 L 5.799408683110482 5.078301598362271 L 5.891283683110482 5.078301598362271 L 6.130033683110482 5.37830159836227 L 6.130033683110482 5.11205159836227 L 6.067533683110482 5.08830159836227 L 6.067533683110482 5.078301598362271 L 6.223158683110482 5.078301598362271 L 6.223158683110482 5.08830159836227 L 6.173783683110481 5.11267659836227 L 6.173783683110481 5.49392659836227 L 6.150658683110482 5.49392659836227 L 5.892533683110481 5.16830159836227 L 5.892533683110481 5.45642659836227 L 5.955033683110481 5.48080159836227 L 5.955033683110481 5.49080159836227 L 5.798783683110481 5.49080159836227 M 6.51691570215345 5.49705159836227 Q 6.45316570215345 5.49705159836227 6.40691570215345 5.470801598362271 Q 6.36066570215345 5.4445515983622705 6.33566570215345 5.39923909836227 Q 6.31066570215345 5.35392659836227 6.31066570215345 5.29580159836227 Q 6.31066570215345 5.25142659836227 6.32785320215345 5.211114098362271 Q 6.34504070215345 5.17080159836227 6.37472820215345 5.13955159836227 Q 6.40441570215345 5.10830159836227 6.44347820215345 5.09017659836227 Q 6.48254070215345 5.07205159836227 6.52629070215345 5.07205159836227 Q 6.55754070215345 5.07205159836227 6.57941570215345 5.07611409836227 Q 6.60129070215345 5.08017659836227 6.61847820215345 5.08673909836227 Q 6.63566570215345 5.09330159836227 6.65316570215345 5.10205159836227 L 6.65629070215345 5.21142659836227 L 6.64504070215345 5.21142659836227 L 6.60691570215345 5.13517659836227 Q 6.58316570215345 5.118301598362271 6.56535320215345 5.11080159836227 Q 6.54754070215345 5.10330159836227 6.52504070215345 5.10330159836227 Q 6.48004070215345 5.10330159836227 6.44472820215345 5.12580159836227 Q 6.40941570215345 5.14830159836227 6.38910320215345 5.18736409836227 Q 6.36879070215345 5.22642659836227 6.36879070215345 5.27705159836227 Q 6.36879070215345 5.33642659836227 6.38847820215345 5.37861409836227 Q 6.40816570215345 5.42080159836227 6.44160320215345 5.44298909836227 Q 6.47504070215345 5.46517659836227 6.51566570215345 5.46517659836227 Q 6.55004070215345 5.46517659836227 6.57347820215345 5.45548909836227 Q 6.59691570215345 5.44580159836227 6.6150407021534505 5.43392659836227 L 6.65254070215345 5.36705159836227 L 6.66316570215345 5.36705159836227 L 6.65629070215345 5.46642659836227 Q 6.63816570215345 5.4758015983622705 6.61910320215345 5.4826765983622705 Q 6.60004070215345 5.4895515983622705 6.57566570215345 5.493301598362271 Q 6.55129070215345 5.49705159836227 6.51691570215345 5.49705159836227 M 6.767548941899544 5.49080159836227 L 6.767548941899544 5.48080159836227 L 6.817548941899544 5.45580159836227 L 6.817548941899544 5.11330159836227 L 6.767548941899544 5.08830159836227 L 6.767548941899544 5.078301598362271 L 7.073173941899544 5.078301598362271 L 7.073173941899544 5.1858015983622705 L 7.063173941899543 5.1858015983622705 L 7.024423941899544 5.11267659836227 L 6.873798941899543 5.11267659836227 L 6.873798941899543 5.26080159836227 L 6.980048941899543 5.26080159836227 L 7.011298941899543 5.20892659836227 L 7.021298941899543 5.20892659836227 L 7.021298941899543 5.345801598362271 L 7.011298941899543 5.345801598362271 L 6.980048941899543 5.2951765983622705 L 6.873798941899543 5.2951765983622705 L 6.873798941899543 5.45642659836227 L 7.041923941899544 5.45642659836227 L 7.080673941899543 5.377051598362271 L 7.090673941899544 5.377051598362271 L 7.090673941899544 5.49080159836227 L 6.767548941899544 5.49080159836227 M 7.343784903813606 5.49080159836227 L 7.343784903813606 5.48080159836227 L 7.393784903813605 5.45580159836227 L 7.393784903813605 5.11330159836227 L 7.343784903813606 5.08830159836227 L 7.343784903813606 5.078301598362271 L 7.5050349038136055 5.078301598362271 Q 7.570659903813605 5.078301598362271 7.608472403813606 5.10548909836227 Q 7.646284903813605 5.13267659836227 7.646284903813605 5.18017659836227 Q 7.646284903813605 5.21517659836227 7.622534903813605 5.24298909836227 Q 7.5987849038136055 5.2708015983622705 7.559409903813605 5.28517659836227 L 7.678159903813605 5.4583015983622705 L 7.719409903813605 5.48080159836227 L 7.719409903813605 5.49080159836227 L 7.629409903813605 5.49080159836227 L 7.508159903813605 5.30142659836227 L 7.450034903813605 5.30142659836227 L 7.450034903813605 5.455176598362271 L 7.496909903813605 5.48080159836227 L 7.496909903813605 5.49080159836227 L 7.343784903813606 5.49080159836227 M 7.490659903813605 5.11267659836227 L 7.450034903813605 5.11267659836227 L 7.450034903813605 5.26705159836227 L 7.494409903813605 5.26705159836227 Q 7.533784903813605 5.26705159836227 7.5597224038136055 5.24486409836227 Q 7.585659903813605 5.22267659836227 7.585659903813605 5.18830159836227 Q 7.585659903813605 5.15330159836227 7.560034903813605 5.132989098362271 Q 7.534409903813605 5.11267659836227 7.490659903813605 5.11267659836227 M 7.763166617680793 5.49080159836227 L 7.763166617680793 5.48080159836227 L 7.813166617680793 5.45580159836227 L 7.813166617680793 5.11330159836227 L 7.763166617680793 5.08830159836227 L 7.763166617680793 5.078301598362271 L 8.068791617680793 5.078301598362271 L 8.068791617680793 5.1858015983622705 L 8.058791617680793 5.1858015983622705 L 8.020041617680793 5.11267659836227 L 7.869416617680792 5.11267659836227 L 7.869416617680792 5.26080159836227 L 7.975666617680792 5.26080159836227 L 8.006916617680792 5.20892659836227 L 8.016916617680792 5.20892659836227 L 8.016916617680792 5.345801598362271 L 8.006916617680792 5.345801598362271 L 7.975666617680792 5.2951765983622705 L 7.869416617680792 5.2951765983622705 L 7.869416617680792 5.45642659836227 L 8.037541617680793 5.45642659836227 L 8.076291617680793 5.377051598362271 L 8.086291617680793 5.377051598362271 L 8.086291617680793 5.49080159836227 L 7.763166617680793 5.49080159836227 M 8.35252147607923 5.49392659836227 L 8.19502147607923 5.11017659836227 L 8.15189647607923 5.08830159836227 L 8.15189647607923 5.078301598362271 L 8.30814647607923 5.078301598362271 L 8.30814647607923 5.08830159836227 L 8.254396476079231 5.11142659836227 L 8.254396476079231 5.1145515983622705 L 8.371271476079231 5.40080159836227 L 8.37439647607923 5.40080159836227 L 8.490646476079231 5.11205159836227 L 8.490646476079231 5.109551598362271 L 8.43939647607923 5.08830159836227 L 8.43939647607923 5.078301598362271 L 8.570646476079231 5.078301598362271 L 8.570646476079231 5.08830159836227 L 8.53502147607923 5.10705159836227 L 8.37439647607923 5.49392659836227 L 8.35252147607923 5.49392659836227 M 8.83187206201673 5.49705159836227 Q 8.78687206201673 5.49705159836227 8.74905956201673 5.48111409836227 Q 8.71124706201673 5.46517659836227 8.68312206201673 5.4367390983622705 Q 8.65499706201673 5.408301598362271 8.63937206201673 5.36955159836227 Q 8.62374706201673 5.33080159836227 8.62374706201673 5.28455159836227 Q 8.62374706201673 5.23830159836227 8.63937206201673 5.19955159836227 Q 8.65499706201673 5.16080159836227 8.68312206201673 5.13236409836227 Q 8.71124706201673 5.10392659836227 8.74905956201673 5.08798909836227 Q 8.78687206201673 5.07205159836227 8.83187206201673 5.07205159836227 Q 8.87687206201673 5.07205159836227 8.914997062016731 5.08798909836227 Q 8.95312206201673 5.10392659836227 8.98124706201673 5.13236409836227 Q 9.00937206201673 5.16080159836227 9.02499706201673 5.19955159836227 Q 9.04062206201673 5.23830159836227 9.04062206201673 5.28455159836227 Q 9.04062206201673 5.33080159836227 9.02499706201673 5.36955159836227 Q 9.00937206201673 5.408301598362271 8.98124706201673 5.4367390983622705 Q 8.95312206201673 5.46517659836227 8.914997062016731 5.48111409836227 Q 8.87687206201673 5.49705159836227 8.83187206201673 5.49705159836227 M 8.84499706201673 5.46580159836227 Q 8.88499706201673 5.46580159836227 8.91530956201673 5.44580159836227 Q 8.94562206201673 5.42580159836227 8.96280956201673 5.38955159836227 Q 8.97999706201673 5.35330159836227 8.97999706201673 5.3039265983622705 Q 8.97999706201673 5.243301598362271 8.95874706201673 5.19798909836227 Q 8.93749706201673 5.15267659836227 8.90155956201673 5.12767659836227 Q 8.86562206201673 5.102676598362271 8.821247062016731 5.102676598362271 Q 8.78124706201673 5.102676598362271 8.75030956201673 5.1223640983622705 Q 8.71937206201673 5.14205159836227 8.70187206201673 5.17830159836227 Q 8.68437206201673 5.21455159836227 8.68437206201673 5.2639265983622705 Q 8.68437206201673 5.32455159836227 8.70593456201673 5.37017659836227 Q 8.727497062016731 5.41580159836227 8.76374706201673 5.44080159836227 Q 8.79999706201673 5.46580159836227 8.84499706201673 5.46580159836227 M 9.131251334477668 5.49080159836227 L 9.131251334477668 5.48080159836227 L 9.181251334477667 5.45580159836227 L 9.181251334477667 5.11330159836227 L 9.131251334477668 5.08830159836227 L 9.131251334477668 5.078301598362271 L 9.293751334477667 5.078301598362271 L 9.293751334477667 5.08830159836227 L 9.237501334477667 5.11330159836227 L 9.237501334477667 5.45642659836227 L 9.389376334477667 5.45642659836227 L 9.431876334477668 5.35205159836227 L 9.441876334477667 5.35205159836227 L 9.441876334477667 5.49080159836227 L 9.131251334477668 5.49080159836227 M 9.726244925786261 5.49705159836227 Q 9.679369925786261 5.49705159836227 9.64280742578626 5.47955159836227 Q 9.60624492578626 5.462051598362271 9.58499492578626 5.42548909836227 Q 9.56374492578626 5.3889265983622705 9.56374492578626 5.33080159836227 L 9.56374492578626 5.11330159836227 L 9.513744925786261 5.08830159836227 L 9.513744925786261 5.078301598362271 L 9.669994925786261 5.078301598362271 L 9.669994925786261 5.08830159836227 L 9.61999492578626 5.11330159836227 L 9.61999492578626 5.321426598362271 Q 9.61999492578626 5.3733015983622705 9.636244925786261 5.40392659836227 Q 9.652494925786261 5.43455159836227 9.68030742578626 5.44767659836227 Q 9.70811992578626 5.46080159836227 9.74249492578626 5.46080159836227 Q 9.76999492578626 5.46080159836227 9.79343242578626 5.44892659836227 Q 9.81686992578626 5.43705159836227 9.83093242578626 5.4114265983622705 Q 9.84499492578626 5.38580159836227 9.84499492578626 5.34330159836227 L 9.84499492578626 5.11205159836227 L 9.78249492578626 5.08830159836227 L 9.78249492578626 5.078301598362271 L 9.93811992578626 5.078301598362271 L 9.93811992578626 5.08830159836227 L 9.888744925786261 5.11267659836227 L 9.888744925786261 5.33080159836227 Q 9.888744925786261 5.3889265983622705 9.86749492578626 5.42548909836227 Q 9.84624492578626 5.462051598362271 9.80968242578626 5.47955159836227 Q 9.773119925786261 5.49705159836227 9.726244925786261 5.49705159836227 M 10.105008048344853 5.49080159836227 L 10.105008048344853 5.48080159836227 L 10.167508048344853 5.45580159836227 L 10.167508048344853 5.11267659836227 L 10.065633048344854 5.11267659836227 L 10.023133048344855 5.20455159836227 L 10.013133048344853 5.20455159836227 L 10.013133048344853 5.078301598362271 L 10.378133048344854 5.078301598362271 L 10.378133048344854 5.20455159836227 L 10.368133048344854 5.20455159836227 L 10.325633048344853 5.11267659836227 L 10.223758048344854 5.11267659836227 L 10.223758048344854 5.45580159836227 L 10.286258048344854 5.48080159836227 L 10.286258048344854 5.49080159836227 L 10.105008048344853 5.49080159836227 M 10.456265067387822 5.49080159836227 L 10.456265067387822 5.48080159836227 L 10.506265067387822 5.45580159836227 L 10.506265067387822 5.11330159836227 L 10.456265067387822 5.08830159836227 L 10.456265067387822 5.078301598362271 L 10.612515067387822 5.078301598362271 L 10.612515067387822 5.08830159836227 L 10.562515067387823 5.11330159836227 L 10.562515067387823 5.45580159836227 L 10.612515067387822 5.48080159836227 L 10.612515067387822 5.49080159836227 L 10.456265067387822 5.49080159836227 M 10.91439922266126 5.49705159836227 Q 10.86939922266126 5.49705159836227 10.83158672266126 5.48111409836227 Q 10.79377422266126 5.46517659836227 10.76564922266126 5.4367390983622705 Q 10.737524222661259 5.408301598362271 10.721899222661259 5.36955159836227 Q 10.706274222661259 5.33080159836227 10.706274222661259 5.28455159836227 Q 10.706274222661259 5.23830159836227 10.721899222661259 5.19955159836227 Q 10.737524222661259 5.16080159836227 10.76564922266126 5.13236409836227 Q 10.79377422266126 5.10392659836227 10.83158672266126 5.08798909836227 Q 10.86939922266126 5.07205159836227 10.91439922266126 5.07205159836227 Q 10.95939922266126 5.07205159836227 10.99752422266126 5.08798909836227 Q 11.03564922266126 5.10392659836227 11.063774222661259 5.13236409836227 Q 11.09189922266126 5.16080159836227 11.10752422266126 5.19955159836227 Q 11.12314922266126 5.23830159836227 11.12314922266126 5.28455159836227 Q 11.12314922266126 5.33080159836227 11.10752422266126 5.36955159836227 Q 11.09189922266126 5.408301598362271 11.063774222661259 5.4367390983622705 Q 11.03564922266126 5.46517659836227 10.99752422266126 5.48111409836227 Q 10.95939922266126 5.49705159836227 10.91439922266126 5.49705159836227 M 10.92752422266126 5.46580159836227 Q 10.96752422266126 5.46580159836227 10.99783672266126 5.44580159836227 Q 11.02814922266126 5.42580159836227 11.04533672266126 5.38955159836227 Q 11.06252422266126 5.35330159836227 11.06252422266126 5.3039265983622705 Q 11.06252422266126 5.243301598362271 11.04127422266126 5.19798909836227 Q 11.02002422266126 5.15267659836227 10.98408672266126 5.12767659836227 Q 10.94814922266126 5.102676598362271 10.90377422266126 5.102676598362271 Q 10.86377422266126 5.102676598362271 10.83283672266126 5.1223640983622705 Q 10.801899222661259 5.14205159836227 10.784399222661259 5.17830159836227 Q 10.766899222661259 5.21455159836227 10.766899222661259 5.2639265983622705 Q 10.766899222661259 5.32455159836227 10.788461722661259 5.37017659836227 Q 10.81002422266126 5.41580159836227 10.84627422266126 5.44080159836227 Q 10.88252422266126 5.46580159836227 10.92752422266126 5.46580159836227 M 11.210653495122196 5.49080159836227 L 11.210653495122196 5.48080159836227 L 11.260653495122197 5.45580159836227 L 11.260653495122197 5.1145515983622705 L 11.211278495122198 5.08830159836227 L 11.211278495122198 5.078301598362271 L 11.303153495122197 5.078301598362271 L 11.541903495122197 5.37830159836227 L 11.541903495122197 5.11205159836227 L 11.479403495122197 5.08830159836227 L 11.479403495122197 5.078301598362271 L 11.635028495122196 5.078301598362271 L 11.635028495122196 5.08830159836227 L 11.585653495122196 5.11267659836227 L 11.585653495122196 5.49392659836227 L 11.562528495122196 5.49392659836227 L 11.304403495122196 5.16830159836227 L 11.304403495122196 5.45642659836227 L 11.366903495122196 5.48080159836227 L 11.366903495122196 5.49080159836227 L 11.210653495122196 5.49080159836227" fill="#b7b7a5" fill-rule="nonzero"></path></g><g clip-path="url(&quot;#SvgjsClipPath1002&quot;)"><g clip-path="url(&quot;#SvgjsClipPath1000&quot;)"><path d=" M 12.07253551416517 1.8710964119340043 L 12.07253551416517 3.619816241899252 L 13.58692830034834 4.494186252833784 C 13.659800881219475 4.4520962293298 15.021250091950053 3.6660557016373785 15.101321086531513 3.61982633785116 L 15.101321086531513 1.871035836222557 C 15.028297066381759 1.828885237007126 13.66628248234434 1.0424913509979281 13.58692830034834 0.9966759212399339 Z M 13.501890097428202 2.7945529410446865 L 13.501890097428202 4.248693086241584 L 12.9572740677091 3.934234472166602 L 12.9572740677091 2.480043847210166 Z M 12.327609739117953 1.9201829301101552 L 12.872215672885147 1.6056738362756344 L 14.131524138163625 2.3327741967298072 L 13.58688791654071 2.647232810804789 Z M 12.242591728101631 3.521633109595043 L 12.242591728101631 2.0674121967828833 L 12.787217853772638 2.381870810857865 L 12.787217853772638 3.836041243910486 Z M 14.93125477664314 2.8927259773969873 L 14.93125477664314 3.5215826298355037 L 13.671946311364664 4.248693086241584 L 13.671946311364664 3.6197758580916197 Z M 13.671946311364664 3.423449977290834 L 13.671946311364664 2.7945024612851475 L 14.93125477664314 2.0674121967828833 L 14.93125477664314 2.6963092330290315 Z M 14.846236765626816 1.9201627382063398 L 14.301610639955811 2.234550680617965 L 13.042292078725426 1.5074604161157006 L 13.586918204396433 1.193001802040719 Z" fill="#ba8437" transform="matrix(1,0,0,1,0,0)" fill-rule="nonzero"></path></g></g></g><defs><clipPath id="SvgjsClipPath1002"><path d=" M 12.07253551416517 0.9966759212399339 h 3.028785572366343 v 3.4974497558824025 h -3.028785572366343 Z"></path></clipPath><clipPath id="SvgjsClipPath1000"><path d=" M 12.07253551416517 0.9966759212399339 L 15.101321086531513 0.9966759212399339 L 15.101321086531513 4.494125677122336 L 12.07253551416517 4.494125677122336 Z"></path></clipPath></defs></svg>